<?xml version="1.0" encoding="UTF-8" standalone="no"?>
<svg
   xmlns:dc="http://purl.org/dc/elements/1.1/"
   xmlns:cc="http://creativecommons.org/ns#"
   xmlns:rdf="http://www.w3.org/1999/02/22-rdf-syntax-ns#"
   xmlns:svg="http://www.w3.org/2000/svg"
   xmlns="http://www.w3.org/2000/svg"
   xmlns:sodipodi="http://sodipodi.sourceforge.net/DTD/sodipodi-0.dtd"
   xmlns:inkscape="http://www.inkscape.org/namespaces/inkscape"
   version="1.1"
   width="5.08254cm"
   height="5.75564cm"
   viewBox="0 0 20010 22660 "
   id="svg2"
   inkscape:version="0.48.4 r9939"
   sodipodi:docname="ArduinoISP_Multi_UnoR3-F_SilkS.svg"
   inkscape:export-filename="F:\Elettronica\ArduinoISP_Multi_UnoR3\Kicad\ArduinoISP_Multi_UnoR3-F_SilkS.png"
   inkscape:export-xdpi="180"
   inkscape:export-ydpi="180">
  <metadata
     id="metadata572">
    <rdf:RDF>
      <cc:Work
         rdf:about="">
        <dc:format>image/svg+xml</dc:format>
        <dc:type
           rdf:resource="http://purl.org/dc/dcmitype/StillImage" />
        <dc:title>SVG Picture created as ArduinoISP_Multi_UnoR3-F_SilkS.svg date 2015/08/27 18:52:49 </dc:title>
      </cc:Work>
    </rdf:RDF>
  </metadata>
  <defs
     id="defs570" />
  <sodipodi:namedview
     pagecolor="#ffffff"
     bordercolor="#666666"
     borderopacity="1"
     objecttolerance="10"
     gridtolerance="10"
     guidetolerance="10"
     inkscape:pageopacity="0"
     inkscape:pageshadow="2"
     inkscape:window-width="640"
     inkscape:window-height="480"
     id="namedview568"
     showgrid="false"
     inkscape:zoom="1.4239022"
     inkscape:cx="90.044998"
     inkscape:cy="101.97"
     inkscape:window-x="777"
     inkscape:window-y="257"
     inkscape:window-maximized="0"
     inkscape:current-layer="svg2" />
  <title
     id="title4">SVG Picture created as ArduinoISP_Multi_UnoR3-F_SilkS.svg date 2015/08/27 18:52:49 </title>
  <desc
     id="desc6">Picture generated by PCBNEW </desc>
  <g
     style="fill:#000000; fill-opacity:1;stroke:#000000; stroke-opacity:1; stroke-linecap:round; stroke-linejoin:round; "
     transform="translate(0 0) scale(1 1)"
     id="g8"
     inkscape:export-xdpi="180"
     inkscape:export-ydpi="180" />
  <g
     style="fill:#C2C200; fill-opacity:0.0;  stroke:#C2C200; stroke-width:59.0551; stroke-opacity:1;  stroke-linecap:round; stroke-linejoin:round;"
     id="g10"
     inkscape:export-filename="F:\Elettronica\ArduinoISP_Multi_UnoR3\Kicad\g8.png"
     inkscape:export-xdpi="180"
     inkscape:export-ydpi="180">
    <path
       d="M2431 18754 L2413 18773 L2356 18792 L2319 18792 L2263 18773 L2225 18736 L2206 18698 L2188 18623 L2188 18567 L2206 18492 L2225 18454 L2263 18417 L2319 18398 L2356 18398 L2413 18417 L2431 18436 "
       id="path12" />
    <path
       d="M2806 18792 L2581 18792 "
       id="path14" />
    <path
       d="M2694 18792 L2694 18398 L2656 18454 L2619 18492 L2581 18511 "
       id="path16" />
    <path
       d="M18206 3292 L18206 2898 L18300 2898 L18356 2917 L18394 2954 L18413 2992 L18431 3067 L18431 3123 L18413 3198 L18394 3236 L18356 3273 L18300 3292 L18206 3292 "
       id="path18" />
    <path
       d="M18806 3292 L18581 3292 "
       id="path20" />
    <path
       d="M18694 3292 L18694 2898 L18656 2954 L18619 2992 L18581 3011 "
       id="path22" />
  </g>
  <g
     style="fill:#008484; fill-opacity:0.0;  stroke:#008484; stroke-width:59.0551; stroke-opacity:1;  stroke-linecap:round; stroke-linejoin:round;"
     id="g24"
     inkscape:export-filename="F:\Elettronica\ArduinoISP_Multi_UnoR3\Kicad\g8.png"
     inkscape:export-xdpi="180"
     inkscape:export-ydpi="180">
    <path
       d="M19559 3607 L19559 3213 "
       id="path26" />
    <path
       d="M19784 3607 L19615 3382 "
       id="path28" />
    <path
       d="M19784 3213 L19559 3438 "
       id="path30" />
  </g>
  <g
     style="fill:#C2C200; fill-opacity:0.0;  stroke:#C2C200; stroke-width:59.0551; stroke-opacity:1;  stroke-linecap:round; stroke-linejoin:round;"
     id="g32"
     inkscape:export-filename="F:\Elettronica\ArduinoISP_Multi_UnoR3\Kicad\g8.png"
     inkscape:export-xdpi="180"
     inkscape:export-ydpi="180">
    <path
       d="M18206 5292 L18206 4898 L18300 4898 L18356 4917 L18394 4954 L18413 4992 L18431 5067 L18431 5123 L18413 5198 L18394 5236 L18356 5273 L18300 5292 L18206 5292 "
       id="path34" />
    <path
       d="M18581 4936 L18600 4917 L18637 4898 L18731 4898 L18769 4917 L18787 4936 L18806 4973 L18806 5011 L18787 5067 L18562 5292 L18806 5292 "
       id="path36" />
  </g>
  <g
     style="fill:#008484; fill-opacity:0.0;  stroke:#008484; stroke-width:59.0551; stroke-opacity:1;  stroke-linecap:round; stroke-linejoin:round;"
     id="g38"
     inkscape:export-filename="F:\Elettronica\ArduinoISP_Multi_UnoR3\Kicad\g8.png"
     inkscape:export-xdpi="180"
     inkscape:export-ydpi="180">
    <path
       d="M19559 5607 L19559 5213 "
       id="path40" />
    <path
       d="M19784 5607 L19615 5382 "
       id="path42" />
    <path
       d="M19784 5213 L19559 5438 "
       id="path44" />
  </g>
  <g
     style="fill:#C2C200; fill-opacity:0.0;  stroke:#C2C200; stroke-width:59.0551; stroke-opacity:1;  stroke-linecap:round; stroke-linejoin:round;"
     id="g46"
     inkscape:export-filename="F:\Elettronica\ArduinoISP_Multi_UnoR3\Kicad\g8.png"
     inkscape:export-xdpi="180"
     inkscape:export-ydpi="180">
    <path
       d="M18206 7292 L18206 6898 L18300 6898 L18356 6917 L18394 6954 L18413 6992 L18431 7067 L18431 7123 L18413 7198 L18394 7236 L18356 7273 L18300 7292 L18206 7292 "
       id="path48" />
    <path
       d="M18562 6898 L18806 6898 L18675 7048 L18731 7048 L18769 7067 L18787 7086 L18806 7123 L18806 7217 L18787 7254 L18769 7273 L18731 7292 L18619 7292 L18581 7273 L18562 7254 "
       id="path50" />
  </g>
  <g
     style="fill:#008484; fill-opacity:0.0;  stroke:#008484; stroke-width:59.0551; stroke-opacity:1;  stroke-linecap:round; stroke-linejoin:round;"
     id="g52"
     inkscape:export-filename="F:\Elettronica\ArduinoISP_Multi_UnoR3\Kicad\g8.png"
     inkscape:export-xdpi="180"
     inkscape:export-ydpi="180">
    <path
       d="M19559 7607 L19559 7213 "
       id="path54" />
    <path
       d="M19784 7607 L19615 7382 "
       id="path56" />
    <path
       d="M19784 7213 L19559 7438 "
       id="path58" />
  </g>
  <g
     style="fill:#C2C200; fill-opacity:0.0;  stroke:#C2C200; stroke-width:59.0551; stroke-opacity:1;  stroke-linecap:round; stroke-linejoin:round;"
     id="g60"
     inkscape:export-filename="F:\Elettronica\ArduinoISP_Multi_UnoR3\Kicad\g8.png"
     inkscape:export-xdpi="180"
     inkscape:export-ydpi="180">
    <path
       d="M4113 15292 L4113 14898 "
       id="path62" />
    <path
       d="M4525 15254 L4506 15273 L4450 15292 L4413 15292 L4356 15273 L4319 15236 L4300 15198 L4281 15123 L4281 15067 L4300 14992 L4319 14954 L4356 14917 L4413 14898 L4450 14898 L4506 14917 L4525 14936 "
       id="path64" />
    <path
       d="M4900 15292 L4675 15292 "
       id="path66" />
    <path
       d="M4787 15292 L4787 14898 L4750 14954 L4712 14992 L4675 15011 "
       id="path68" />
    <path
       d="M14931 4292 L14800 4104 "
       id="path70" />
    <path
       d="M14706 4292 L14706 3898 L14856 3898 L14894 3917 L14913 3936 L14931 3973 L14931 4029 L14913 4067 L14894 4086 L14856 4104 L14706 4104 "
       id="path72" />
    <path
       d="M15306 4292 L15081 4292 "
       id="path74" />
    <path
       d="M15194 4292 L15194 3898 L15156 3954 L15119 3992 L15081 4011 "
       id="path76" />
    <path
       d="M14931 6292 L14800 6104 "
       id="path78" />
    <path
       d="M14706 6292 L14706 5898 L14856 5898 L14894 5917 L14913 5936 L14931 5973 L14931 6029 L14913 6067 L14894 6086 L14856 6104 L14706 6104 "
       id="path80" />
    <path
       d="M15081 5936 L15100 5917 L15137 5898 L15231 5898 L15269 5917 L15287 5936 L15306 5973 L15306 6011 L15287 6067 L15062 6292 L15306 6292 "
       id="path82" />
    <path
       d="M14931 8292 L14800 8104 "
       id="path84" />
    <path
       d="M14706 8292 L14706 7898 L14856 7898 L14894 7917 L14913 7936 L14931 7973 L14931 8029 L14913 8067 L14894 8086 L14856 8104 L14706 8104 "
       id="path86" />
    <path
       d="M15062 7898 L15306 7898 L15175 8048 L15231 8048 L15269 8067 L15287 8086 L15306 8123 L15306 8217 L15287 8254 L15269 8273 L15231 8292 L15119 8292 L15081 8273 L15062 8254 "
       id="path88" />
    <path
       d="M11206 19792 L11206 19398 L11356 19398 L11394 19417 L11413 19436 L11431 19473 L11431 19529 L11413 19567 L11394 19586 L11356 19604 L11206 19604 "
       id="path90" />
    <path
       d="M11806 19792 L11581 19792 "
       id="path92" />
    <path
       d="M11694 19792 L11694 19398 L11656 19454 L11619 19492 L11581 19511 "
       id="path94" />
    <path
       d="M5206 5292 L5206 4898 L5356 4898 L5394 4917 L5413 4936 L5431 4973 L5431 5029 L5413 5067 L5394 5086 L5356 5104 L5206 5104 "
       id="path96" />
    <path
       d="M5769 5029 L5769 5292 "
       id="path98" />
    <path
       d="M5675 4879 L5581 5161 L5825 5161 "
       id="path100" />
    <path
       d="M2206 5292 L2206 4898 L2356 4898 L2394 4917 L2413 4936 L2431 4973 L2431 5029 L2413 5067 L2394 5086 L2356 5104 L2206 5104 "
       id="path102" />
    <path
       d="M2787 4898 L2600 4898 L2581 5086 L2600 5067 L2637 5048 L2731 5048 L2769 5067 L2787 5086 L2806 5123 L2806 5217 L2787 5254 L2769 5273 L2731 5292 L2637 5292 L2600 5273 L2581 5254 "
       id="path104" />
    <path
       d="M7206 792 L7206 398 L7356 398 L7394 417 L7413 436 L7431 473 L7431 529 L7413 567 L7394 586 L7356 604 L7206 604 "
       id="path106" />
    <path
       d="M7581 436 L7600 417 L7637 398 L7731 398 L7769 417 L7787 436 L7806 473 L7806 511 L7787 567 L7562 792 L7806 792 "
       id="path108" />
    <path
       d="M13706 792 L13706 398 L13856 398 L13894 417 L13913 436 L13931 473 L13931 529 L13913 567 L13894 586 L13856 604 L13706 604 "
       id="path110" />
    <path
       d="M14062 398 L14306 398 L14175 548 L14231 548 L14269 567 L14287 586 L14306 623 L14306 717 L14287 754 L14269 773 L14231 792 L14119 792 L14081 773 L14062 754 "
       id="path112" />
    <path
       d="M9416 17770 L9397 17789 L9341 17808 L9303 17808 L9247 17789 L9209 17751 L9191 17714 L9172 17639 L9172 17583 L9191 17508 L9209 17470 L9247 17433 L9303 17414 L9341 17414 L9397 17433 L9416 17451 "
       id="path114" />
    <path
       d="M9565 17451 L9584 17433 L9622 17414 L9715 17414 L9753 17433 L9772 17451 L9790 17489 L9790 17526 L9772 17583 L9547 17808 L9790 17808 "
       id="path116" />
  </g>
  <g
     style="fill:#008484; fill-opacity:0.0;  stroke:#008484; stroke-width:59.0551; stroke-opacity:1;  stroke-linecap:round; stroke-linejoin:round;"
     id="g118"
     inkscape:export-filename="F:\Elettronica\ArduinoISP_Multi_UnoR3\Kicad\g8.png"
     inkscape:export-xdpi="180"
     inkscape:export-ydpi="180">
    <path
       d="M3481 20135 L1513 20135 "
       id="path120" />
    <path
       d="M3478 20190 L1516 20190 "
       id="path122" />
    <path
       d="M3471 20246 L2534 20246 "
       id="path124" />
    <path
       d="M2459 20246 L1522 20246 "
       id="path126" />
    <path
       d="M3462 20301 L2690 20301 "
       id="path128" />
    <path
       d="M2304 20301 L1532 20301 "
       id="path130" />
    <path
       d="M3449 20356 L2756 20356 "
       id="path132" />
    <path
       d="M2238 20356 L1545 20356 "
       id="path134" />
    <path
       d="M3433 20411 L2798 20411 "
       id="path136" />
    <path
       d="M2196 20411 L1561 20411 "
       id="path138" />
    <path
       d="M3413 20466 L2826 20466 "
       id="path140" />
    <path
       d="M2168 20466 L1581 20466 "
       id="path142" />
    <path
       d="M3389 20521 L2843 20521 "
       id="path144" />
    <path
       d="M2151 20521 L1605 20521 "
       id="path146" />
    <path
       d="M3361 20576 L2850 20576 "
       id="path148" />
    <path
       d="M2143 20576 L1632 20576 "
       id="path150" />
    <path
       d="M3329 20631 L2850 20631 "
       id="path152" />
    <path
       d="M2144 20631 L1665 20631 "
       id="path154" />
    <path
       d="M3292 20687 L2840 20687 "
       id="path156" />
    <path
       d="M2154 20687 L1702 20687 "
       id="path158" />
    <path
       d="M3248 20742 L2821 20742 "
       id="path160" />
    <path
       d="M2173 20742 L1746 20742 "
       id="path162" />
    <path
       d="M3198 20797 L2790 20797 "
       id="path164" />
    <path
       d="M2204 20797 L1796 20797 "
       id="path166" />
    <path
       d="M3139 20852 L2744 20852 "
       id="path168" />
    <path
       d="M2250 20852 L1855 20852 "
       id="path170" />
    <path
       d="M3069 20907 L2670 20907 "
       id="path172" />
    <path
       d="M2324 20907 L1925 20907 "
       id="path174" />
    <path
       d="M2982 20962 L2011 20962 "
       id="path176" />
    <path
       d="M2869 21017 L2125 21017 "
       id="path178" />
    <path
       d="M2683 21072 L2311 21072 "
       id="path180" />
    <circle
       cx="2497.38"
       cy="20598.4"
       r="354.331"
       id="circle182" />
    <circle
       cx="2497.38"
       cy="20106.3"
       r="999.016"
       id="circle184" />
    <path
       d="M19075 3596 L19075 3675 "
       id="path186" />
    <path
       d="M19075 4618 L19075 4547 "
       id="path188" />
    <path
       d="M17805 4495.92 A786.653 786.653 0.0 0 0 19075.7 4620.47 "
       id="path190" />
    <path
       d="M18071 4546.88 A608.718 608.718 0.0 0 0 18899 4547.24 "
       id="path192" />
    <path
       d="M19070.7 3586.33 A782.385 782.385 0.0 0 0 17796.2 3722.83 "
       id="path194" />
    <path
       d="M18884.3 3675.88 A582.991 582.991 0.0 0 0 18078.1 3683.46 "
       id="path196" />
    <path
       d="M19075 5596 L19075 5675 "
       id="path198" />
    <path
       d="M19075 6618 L19075 6547 "
       id="path200" />
    <path
       d="M17805 6495.92 A786.653 786.653 0.0 0 0 19075.7 6620.47 "
       id="path202" />
    <path
       d="M18071 6546.88 A608.718 608.718 0.0 0 0 18899 6547.24 "
       id="path204" />
    <path
       d="M19070.7 5586.33 A782.385 782.385 0.0 0 0 17796.2 5722.83 "
       id="path206" />
    <path
       d="M18884.3 5675.88 A582.991 582.991 0.0 0 0 18078.1 5683.46 "
       id="path208" />
    <path
       d="M19075 7596 L19075 7675 "
       id="path210" />
    <path
       d="M19075 8618 L19075 8547 "
       id="path212" />
    <path
       d="M17805 8495.92 A786.653 786.653 0.0 0 0 19075.7 8620.47 "
       id="path214" />
    <path
       d="M18071 8546.88 A608.718 608.718 0.0 0 0 18899 8547.24 "
       id="path216" />
    <path
       d="M19070.7 7586.33 A782.385 782.385 0.0 0 0 17796.2 7722.83 "
       id="path218" />
    <path
       d="M18884.3 7675.88 A582.991 582.991 0.0 0 0 18078.1 7683.46 "
       id="path220" />
    <path
       d="M1497 14114 L16497 14114 "
       id="path222" />
    <path
       d="M16497 14114 L16497 16114 "
       id="path224" />
    <path
       d="M16497 16114 L1497 16114 "
       id="path226" />
    <path
       d="M1497 16114 L1497 14114 "
       id="path228" />
    <path
       d="M1497 14614 L1997 14614 "
       id="path230" />
    <path
       d="M1997 14614 L1997 15614 "
       id="path232" />
    <path
       d="M1997 15614 L1497 15614 "
       id="path234" />
    <path
       d="M13997 3614 L15997 3614 "
       id="path236" />
    <path
       d="M15997 3614 L15997 4614 "
       id="path238" />
    <path
       d="M15997 4614 L13997 4614 "
       id="path240" />
    <path
       d="M13997 4614 L13997 3614 "
       id="path242" />
    <path
       d="M13997 4114 L13497 4114 "
       id="path244" />
    <path
       d="M15997 4114 L16497 4114 "
       id="path246" />
    <path
       d="M13997 5614 L15997 5614 "
       id="path248" />
    <path
       d="M15997 5614 L15997 6614 "
       id="path250" />
    <path
       d="M15997 6614 L13997 6614 "
       id="path252" />
    <path
       d="M13997 6614 L13997 5614 "
       id="path254" />
    <path
       d="M13997 6114 L13497 6114 "
       id="path256" />
    <path
       d="M15997 6114 L16497 6114 "
       id="path258" />
    <path
       d="M13997 7614 L15997 7614 "
       id="path260" />
    <path
       d="M15997 7614 L15997 8614 "
       id="path262" />
    <path
       d="M15997 8614 L13997 8614 "
       id="path264" />
    <path
       d="M13997 8614 L13997 7614 "
       id="path266" />
    <path
       d="M13997 8114 L13497 8114 "
       id="path268" />
    <path
       d="M15997 8114 L16497 8114 "
       id="path270" />
    <path
       d="M10497 21381 L13497 21381 "
       id="path272" />
    <path
       d="M10497 20381 L13497 20381 "
       id="path274" />
    <path
       d="M9387 20271 L9997 20271 "
       id="path276" />
    <path
       d="M13497 21381 L13497 20381 "
       id="path278" />
    <path
       d="M10497 20381 L10497 21381 "
       id="path280" />
    <path
       d="M9997 21492 L9387 21492 "
       id="path282" />
    <path
       d="M9387 21492 L9387 20271 "
       id="path284" />
    <path
       d="M5997 5614 L3997 5614 "
       id="path286" />
    <path
       d="M7107 5503 L7107 6114 "
       id="path288" />
    <path
       d="M6997 6614 L5997 6614 "
       id="path290" />
    <path
       d="M5997 6614 L5997 5614 "
       id="path292" />
    <path
       d="M3997 5614 L3997 7614 "
       id="path294" />
    <path
       d="M3997 7614 L5997 7614 "
       id="path296" />
    <path
       d="M7107 5503 L6497 5503 "
       id="path298" />
    <path
       d="M6997 7614 L6997 6614 "
       id="path300" />
    <path
       d="M5997 7614 L6997 7614 "
       id="path302" />
    <path
       d="M2497 5503 L3107 5503 "
       id="path304" />
    <path
       d="M3107 6114 L3107 5503 "
       id="path306" />
    <path
       d="M1997 5614 L1997 6614 "
       id="path308" />
    <path
       d="M2997 7614 L2997 6614 "
       id="path310" />
    <path
       d="M2997 6614 L1997 6614 "
       id="path312" />
    <path
       d="M1997 6614 L1997 7614 "
       id="path314" />
    <path
       d="M1997 7614 L2997 7614 "
       id="path316" />
    <path
       d="M7997 1295 L12997 1295 "
       id="path318" />
    <path
       d="M12997 1295 L12997 2295 "
       id="path320" />
    <path
       d="M12997 2295 L7997 2295 "
       id="path322" />
    <path
       d="M6887 1185 L7497 1185 "
       id="path324" />
    <path
       d="M7997 1295 L7997 2295 "
       id="path326" />
    <path
       d="M7497 2405 L6887 2405 "
       id="path328" />
    <path
       d="M6887 2405 L6887 1185 "
       id="path330" />
    <path
       d="M14497 1295 L15497 1295 "
       id="path332" />
    <path
       d="M13387 1185 L13997 1185 "
       id="path334" />
    <path
       d="M14497 1295 L14497 2295 "
       id="path336" />
    <path
       d="M13997 2405 L13387 2405 "
       id="path338" />
    <path
       d="M13387 2405 L13387 1185 "
       id="path340" />
    <path
       d="M14497 2295 L15497 2295 "
       id="path342" />
    <path
       d="M15497 2295 L15497 1295 "
       id="path344" />
    <path
       d="M8103 18122 L10859 18122 "
       id="path346" />
    <path
       d="M10859 18122 L10859 19106 "
       id="path348" />
    <path
       d="M10859 19106 L8103 19106 "
       id="path350" />
    <path
       d="M8103 19106 L8103 18122 "
       id="path352" />
  </g>
  <g
     style="fill:#840000; fill-opacity:0.0;  stroke:#840000; stroke-width:0; stroke-opacity:1;  stroke-linecap:round; stroke-linejoin:round;"
     id="g354"
     inkscape:export-filename="F:\Elettronica\ArduinoISP_Multi_UnoR3\Kicad\g8.png"
     inkscape:export-xdpi="180"
     inkscape:export-ydpi="180" />
  <g
     style="fill:#840000; fill-opacity:1.0;  stroke:#840000; stroke-width:0; stroke-opacity:1;  stroke-linecap:round; stroke-linejoin:round;"
     id="g356"
     inkscape:export-filename="F:\Elettronica\ArduinoISP_Multi_UnoR3\Kicad\g8.png"
     inkscape:export-xdpi="180"
     inkscape:export-ydpi="180">
    <polyline
       style="fill-rule:evenodd;"
       points="1897,19264 3097,19264 3097,19964 1897,19964 1897,19264 "
       id="polyline358" />
  </g>
  <g
     style="fill:#840000; fill-opacity:1.0;  stroke:#840000; stroke-width:800; stroke-opacity:1;  stroke-linecap:round; stroke-linejoin:round;"
     id="g360"
     inkscape:export-filename="F:\Elettronica\ArduinoISP_Multi_UnoR3\Kicad\g8.png"
     inkscape:export-xdpi="180"
     inkscape:export-ydpi="180" />
  <g
     style="fill:#840000; fill-opacity:0.0;  stroke:#840000; stroke-width:800; stroke-opacity:1;  stroke-linecap:round; stroke-linejoin:round;"
     id="g362"
     inkscape:export-filename="F:\Elettronica\ArduinoISP_Multi_UnoR3\Kicad\g8.png"
     inkscape:export-xdpi="180"
     inkscape:export-ydpi="180">
    <path
       d="M2697 20598 L2297 20598 "
       id="path364" />
    <path
       d="M18997 4214 L18997 4014 "
       id="path366" />
    <path
       d="M17997 4214 L17997 4014 "
       id="path368" />
    <path
       d="M18997 6214 L18997 6014 "
       id="path370" />
    <path
       d="M17997 6214 L17997 6014 "
       id="path372" />
    <path
       d="M18997 8214 L18997 8014 "
       id="path374" />
    <path
       d="M17997 8214 L17997 8014 "
       id="path376" />
  </g>
  <g
     style="fill:#840000; fill-opacity:0.0;  stroke:#840000; stroke-width:700; stroke-opacity:1;  stroke-linecap:round; stroke-linejoin:round;"
     id="g378"
     inkscape:export-filename="F:\Elettronica\ArduinoISP_Multi_UnoR3\Kicad\g8.png"
     inkscape:export-xdpi="180"
     inkscape:export-ydpi="180">
    <path
       d="M3497 16364 L3497 16864 "
       id="path380" />
    <path
       d="M4497 16364 L4497 16864 "
       id="path382" />
    <path
       d="M5497 16364 L5497 16864 "
       id="path384" />
    <path
       d="M6497 16364 L6497 16864 "
       id="path386" />
    <path
       d="M7497 16364 L7497 16864 "
       id="path388" />
    <path
       d="M8497 16364 L8497 16864 "
       id="path390" />
    <path
       d="M9497 16364 L9497 16864 "
       id="path392" />
    <path
       d="M10497 16364 L10497 16864 "
       id="path394" />
    <path
       d="M11497 16364 L11497 16864 "
       id="path396" />
    <path
       d="M12497 16364 L12497 16864 "
       id="path398" />
    <path
       d="M13497 16364 L13497 16864 "
       id="path400" />
    <path
       d="M14497 16364 L14497 16864 "
       id="path402" />
    <path
       d="M15497 16364 L15497 16864 "
       id="path404" />
  </g>
  <g
     style="fill:#840000; fill-opacity:0.0;  stroke:#840000; stroke-width:0; stroke-opacity:1;  stroke-linecap:round; stroke-linejoin:round;"
     id="g406"
     inkscape:export-filename="F:\Elettronica\ArduinoISP_Multi_UnoR3\Kicad\g8.png"
     inkscape:export-xdpi="180"
     inkscape:export-ydpi="180" />
  <g
     style="fill:#840000; fill-opacity:1.0;  stroke:#840000; stroke-width:0; stroke-opacity:1;  stroke-linecap:round; stroke-linejoin:round;"
     id="g408"
     inkscape:export-filename="F:\Elettronica\ArduinoISP_Multi_UnoR3\Kicad\g8.png"
     inkscape:export-xdpi="180"
     inkscape:export-ydpi="180">
    <polyline
       style="fill-rule:evenodd;"
       points="2147,17214 2147,16014 2847,16014 2847,17214 2147,17214 "
       id="polyline410" />
  </g>
  <g
     style="fill:#840000; fill-opacity:1.0;  stroke:#840000; stroke-width:700; stroke-opacity:1;  stroke-linecap:round; stroke-linejoin:round;"
     id="g412"
     inkscape:export-filename="F:\Elettronica\ArduinoISP_Multi_UnoR3\Kicad\g8.png"
     inkscape:export-xdpi="180"
     inkscape:export-ydpi="180" />
  <g
     style="fill:#840000; fill-opacity:0.0;  stroke:#840000; stroke-width:700; stroke-opacity:1;  stroke-linecap:round; stroke-linejoin:round;"
     id="g414"
     inkscape:export-filename="F:\Elettronica\ArduinoISP_Multi_UnoR3\Kicad\g8.png"
     inkscape:export-xdpi="180"
     inkscape:export-ydpi="180">
    <path
       d="M15497 13364 L15497 13864 "
       id="path416" />
    <path
       d="M14497 13364 L14497 13864 "
       id="path418" />
    <path
       d="M13497 13364 L13497 13864 "
       id="path420" />
    <path
       d="M12497 13364 L12497 13864 "
       id="path422" />
    <path
       d="M11497 13364 L11497 13864 "
       id="path424" />
    <path
       d="M10497 13364 L10497 13864 "
       id="path426" />
    <path
       d="M9497 13364 L9497 13864 "
       id="path428" />
    <path
       d="M8497 13364 L8497 13864 "
       id="path430" />
    <path
       d="M7497 13364 L7497 13864 "
       id="path432" />
    <path
       d="M6497 13364 L6497 13864 "
       id="path434" />
    <path
       d="M5497 13364 L5497 13864 "
       id="path436" />
    <path
       d="M4497 13364 L4497 13864 "
       id="path438" />
    <path
       d="M3497 13364 L3497 13864 "
       id="path440" />
    <path
       d="M2497 13364 L2497 13864 "
       id="path442" />
  </g>
  <g
     style="fill:#840000; fill-opacity:1.0;  stroke:#840000; stroke-width:0; stroke-opacity:1;  stroke-linecap:round; stroke-linejoin:round;"
     id="g444"
     inkscape:export-filename="F:\Elettronica\ArduinoISP_Multi_UnoR3\Kicad\g8.png"
     inkscape:export-xdpi="180"
     inkscape:export-ydpi="180">
    <circle
       cx="12997.4"
       cy="4114.17"
       r="500"
       id="circle446" />
  </g>
  <g
     style="fill:#840000; fill-opacity:1.0;  stroke:#840000; stroke-width:39.3701; stroke-opacity:1;  stroke-linecap:round; stroke-linejoin:round;"
     id="g448"
     inkscape:export-filename="F:\Elettronica\ArduinoISP_Multi_UnoR3\Kicad\g8.png"
     inkscape:export-xdpi="180"
     inkscape:export-ydpi="180" />
  <g
     style="fill:#840000; fill-opacity:1.0;  stroke:#840000; stroke-width:0; stroke-opacity:1;  stroke-linecap:round; stroke-linejoin:round;"
     id="g450"
     inkscape:export-filename="F:\Elettronica\ArduinoISP_Multi_UnoR3\Kicad\g8.png"
     inkscape:export-xdpi="180"
     inkscape:export-ydpi="180">
    <circle
       cx="16997.4"
       cy="4114.17"
       r="500"
       id="circle452" />
  </g>
  <g
     style="fill:#840000; fill-opacity:1.0;  stroke:#840000; stroke-width:39.3701; stroke-opacity:1;  stroke-linecap:round; stroke-linejoin:round;"
     id="g454"
     inkscape:export-filename="F:\Elettronica\ArduinoISP_Multi_UnoR3\Kicad\g8.png"
     inkscape:export-xdpi="180"
     inkscape:export-ydpi="180" />
  <g
     style="fill:#840000; fill-opacity:1.0;  stroke:#840000; stroke-width:0; stroke-opacity:1;  stroke-linecap:round; stroke-linejoin:round;"
     id="g456"
     inkscape:export-filename="F:\Elettronica\ArduinoISP_Multi_UnoR3\Kicad\g8.png"
     inkscape:export-xdpi="180"
     inkscape:export-ydpi="180">
    <circle
       cx="12997.4"
       cy="6114.17"
       r="500"
       id="circle458" />
  </g>
  <g
     style="fill:#840000; fill-opacity:1.0;  stroke:#840000; stroke-width:39.3701; stroke-opacity:1;  stroke-linecap:round; stroke-linejoin:round;"
     id="g460"
     inkscape:export-filename="F:\Elettronica\ArduinoISP_Multi_UnoR3\Kicad\g8.png"
     inkscape:export-xdpi="180"
     inkscape:export-ydpi="180" />
  <g
     style="fill:#840000; fill-opacity:1.0;  stroke:#840000; stroke-width:0; stroke-opacity:1;  stroke-linecap:round; stroke-linejoin:round;"
     id="g462"
     inkscape:export-filename="F:\Elettronica\ArduinoISP_Multi_UnoR3\Kicad\g8.png"
     inkscape:export-xdpi="180"
     inkscape:export-ydpi="180">
    <circle
       cx="16997.4"
       cy="6114.17"
       r="500"
       id="circle464" />
  </g>
  <g
     style="fill:#840000; fill-opacity:1.0;  stroke:#840000; stroke-width:39.3701; stroke-opacity:1;  stroke-linecap:round; stroke-linejoin:round;"
     id="g466"
     inkscape:export-filename="F:\Elettronica\ArduinoISP_Multi_UnoR3\Kicad\g8.png"
     inkscape:export-xdpi="180"
     inkscape:export-ydpi="180" />
  <g
     style="fill:#840000; fill-opacity:1.0;  stroke:#840000; stroke-width:0; stroke-opacity:1;  stroke-linecap:round; stroke-linejoin:round;"
     id="g468"
     inkscape:export-filename="F:\Elettronica\ArduinoISP_Multi_UnoR3\Kicad\g8.png"
     inkscape:export-xdpi="180"
     inkscape:export-ydpi="180">
    <circle
       cx="12997.4"
       cy="8114.17"
       r="500"
       id="circle470" />
  </g>
  <g
     style="fill:#840000; fill-opacity:1.0;  stroke:#840000; stroke-width:39.3701; stroke-opacity:1;  stroke-linecap:round; stroke-linejoin:round;"
     id="g472"
     inkscape:export-filename="F:\Elettronica\ArduinoISP_Multi_UnoR3\Kicad\g8.png"
     inkscape:export-xdpi="180"
     inkscape:export-ydpi="180" />
  <g
     style="fill:#840000; fill-opacity:1.0;  stroke:#840000; stroke-width:0; stroke-opacity:1;  stroke-linecap:round; stroke-linejoin:round;"
     id="g474"
     inkscape:export-filename="F:\Elettronica\ArduinoISP_Multi_UnoR3\Kicad\g8.png"
     inkscape:export-xdpi="180"
     inkscape:export-ydpi="180">
    <circle
       cx="16997.4"
       cy="8114.17"
       r="500"
       id="circle476" />
  </g>
  <g
     style="fill:#840000; fill-opacity:1.0;  stroke:#840000; stroke-width:39.3701; stroke-opacity:1;  stroke-linecap:round; stroke-linejoin:round;"
     id="g478"
     inkscape:export-filename="F:\Elettronica\ArduinoISP_Multi_UnoR3\Kicad\g8.png"
     inkscape:export-xdpi="180"
     inkscape:export-ydpi="180" />
  <g
     style="fill:#840000; fill-opacity:1.0;  stroke:#840000; stroke-width:0; stroke-opacity:1;  stroke-linecap:round; stroke-linejoin:round;"
     id="g480"
     inkscape:export-filename="F:\Elettronica\ArduinoISP_Multi_UnoR3\Kicad\g8.png"
     inkscape:export-xdpi="180"
     inkscape:export-ydpi="180">
    <polyline
       style="fill-rule:evenodd;"
       points="10347,21481 9647,21481 9647,20281 10347,20281 10347,21481 "
       id="polyline482" />
  </g>
  <g
     style="fill:#840000; fill-opacity:1.0;  stroke:#840000; stroke-width:700; stroke-opacity:1;  stroke-linecap:round; stroke-linejoin:round;"
     id="g484"
     inkscape:export-filename="F:\Elettronica\ArduinoISP_Multi_UnoR3\Kicad\g8.png"
     inkscape:export-xdpi="180"
     inkscape:export-ydpi="180" />
  <g
     style="fill:#840000; fill-opacity:0.0;  stroke:#840000; stroke-width:700; stroke-opacity:1;  stroke-linecap:round; stroke-linejoin:round;"
     id="g486"
     inkscape:export-filename="F:\Elettronica\ArduinoISP_Multi_UnoR3\Kicad\g8.png"
     inkscape:export-xdpi="180"
     inkscape:export-ydpi="180">
    <path
       d="M10997 21131 L10997 20631 "
       id="path488" />
    <path
       d="M11997 21131 L11997 20631 "
       id="path490" />
    <path
       d="M12997 21131 L12997 20631 "
       id="path492" />
  </g>
  <g
     style="fill:#840000; fill-opacity:0.0;  stroke:#840000; stroke-width:0; stroke-opacity:1;  stroke-linecap:round; stroke-linejoin:round;"
     id="g494"
     inkscape:export-filename="F:\Elettronica\ArduinoISP_Multi_UnoR3\Kicad\g8.png"
     inkscape:export-xdpi="180"
     inkscape:export-ydpi="180" />
  <g
     style="fill:#840000; fill-opacity:1.0;  stroke:#840000; stroke-width:0; stroke-opacity:1;  stroke-linecap:round; stroke-linejoin:round;"
     id="g496"
     inkscape:export-filename="F:\Elettronica\ArduinoISP_Multi_UnoR3\Kicad\g8.png"
     inkscape:export-xdpi="180"
     inkscape:export-ydpi="180">
    <polyline
       style="fill-rule:evenodd;"
       points="6097,5714 6897,5714 6897,6514 6097,6514 6097,5714 "
       id="polyline498" />
  </g>
  <g
     style="fill:#840000; fill-opacity:1.0;  stroke:#840000; stroke-width:800; stroke-opacity:1;  stroke-linecap:round; stroke-linejoin:round;"
     id="g500"
     inkscape:export-filename="F:\Elettronica\ArduinoISP_Multi_UnoR3\Kicad\g8.png"
     inkscape:export-xdpi="180"
     inkscape:export-ydpi="180" />
  <g
     style="fill:#840000; fill-opacity:0.0;  stroke:#840000; stroke-width:800; stroke-opacity:1;  stroke-linecap:round; stroke-linejoin:round;"
     id="g502"
     inkscape:export-filename="F:\Elettronica\ArduinoISP_Multi_UnoR3\Kicad\g8.png"
     inkscape:export-xdpi="180"
     inkscape:export-ydpi="180">
    <path
       d="M6497 7114 L6497 7114 "
       id="path504" />
    <path
       d="M5497 6114 L5497 6114 "
       id="path506" />
    <path
       d="M5497 7114 L5497 7114 "
       id="path508" />
    <path
       d="M4497 6114 L4497 6114 "
       id="path510" />
    <path
       d="M4497 7114 L4497 7114 "
       id="path512" />
  </g>
  <g
     style="fill:#840000; fill-opacity:0.0;  stroke:#840000; stroke-width:0; stroke-opacity:1;  stroke-linecap:round; stroke-linejoin:round;"
     id="g514"
     inkscape:export-filename="F:\Elettronica\ArduinoISP_Multi_UnoR3\Kicad\g8.png"
     inkscape:export-xdpi="180"
     inkscape:export-ydpi="180" />
  <g
     style="fill:#840000; fill-opacity:1.0;  stroke:#840000; stroke-width:0; stroke-opacity:1;  stroke-linecap:round; stroke-linejoin:round;"
     id="g516"
     inkscape:export-filename="F:\Elettronica\ArduinoISP_Multi_UnoR3\Kicad\g8.png"
     inkscape:export-xdpi="180"
     inkscape:export-ydpi="180">
    <polyline
       style="fill-rule:evenodd;"
       points="1897,5714 3097,5714 3097,6514 1897,6514 1897,5714 "
       id="polyline518" />
  </g>
  <g
     style="fill:#840000; fill-opacity:1.0;  stroke:#840000; stroke-width:800; stroke-opacity:1;  stroke-linecap:round; stroke-linejoin:round;"
     id="g520"
     inkscape:export-filename="F:\Elettronica\ArduinoISP_Multi_UnoR3\Kicad\g8.png"
     inkscape:export-xdpi="180"
     inkscape:export-ydpi="180" />
  <g
     style="fill:#840000; fill-opacity:0.0;  stroke:#840000; stroke-width:800; stroke-opacity:1;  stroke-linecap:round; stroke-linejoin:round;"
     id="g522"
     inkscape:export-filename="F:\Elettronica\ArduinoISP_Multi_UnoR3\Kicad\g8.png"
     inkscape:export-xdpi="180"
     inkscape:export-ydpi="180">
    <path
       d="M2697 7114 L2297 7114 "
       id="path524" />
  </g>
  <g
     style="fill:#840000; fill-opacity:0.0;  stroke:#840000; stroke-width:0; stroke-opacity:1;  stroke-linecap:round; stroke-linejoin:round;"
     id="g526"
     inkscape:export-filename="F:\Elettronica\ArduinoISP_Multi_UnoR3\Kicad\g8.png"
     inkscape:export-xdpi="180"
     inkscape:export-ydpi="180" />
  <g
     style="fill:#840000; fill-opacity:1.0;  stroke:#840000; stroke-width:0; stroke-opacity:1;  stroke-linecap:round; stroke-linejoin:round;"
     id="g528"
     inkscape:export-filename="F:\Elettronica\ArduinoISP_Multi_UnoR3\Kicad\g8.png"
     inkscape:export-xdpi="180"
     inkscape:export-ydpi="180">
    <polyline
       style="fill-rule:evenodd;"
       points="7847,2395 7147,2395 7147,1195 7847,1195 7847,2395 "
       id="polyline530" />
  </g>
  <g
     style="fill:#840000; fill-opacity:1.0;  stroke:#840000; stroke-width:700; stroke-opacity:1;  stroke-linecap:round; stroke-linejoin:round;"
     id="g532"
     inkscape:export-filename="F:\Elettronica\ArduinoISP_Multi_UnoR3\Kicad\g8.png"
     inkscape:export-xdpi="180"
     inkscape:export-ydpi="180" />
  <g
     style="fill:#840000; fill-opacity:0.0;  stroke:#840000; stroke-width:700; stroke-opacity:1;  stroke-linecap:round; stroke-linejoin:round;"
     id="g534"
     inkscape:export-filename="F:\Elettronica\ArduinoISP_Multi_UnoR3\Kicad\g8.png"
     inkscape:export-xdpi="180"
     inkscape:export-ydpi="180">
    <path
       d="M8497 2045 L8497 1545 "
       id="path536" />
    <path
       d="M9497 2045 L9497 1545 "
       id="path538" />
    <path
       d="M10497 2045 L10497 1545 "
       id="path540" />
    <path
       d="M11497 2045 L11497 1545 "
       id="path542" />
    <path
       d="M12497 2045 L12497 1545 "
       id="path544" />
  </g>
  <g
     style="fill:#840000; fill-opacity:0.0;  stroke:#840000; stroke-width:0; stroke-opacity:1;  stroke-linecap:round; stroke-linejoin:round;"
     id="g546"
     inkscape:export-filename="F:\Elettronica\ArduinoISP_Multi_UnoR3\Kicad\g8.png"
     inkscape:export-xdpi="180"
     inkscape:export-ydpi="180" />
  <g
     style="fill:#840000; fill-opacity:1.0;  stroke:#840000; stroke-width:0; stroke-opacity:1;  stroke-linecap:round; stroke-linejoin:round;"
     id="g548"
     inkscape:export-filename="F:\Elettronica\ArduinoISP_Multi_UnoR3\Kicad\g8.png"
     inkscape:export-xdpi="180"
     inkscape:export-ydpi="180">
    <polyline
       style="fill-rule:evenodd;"
       points="14397,2195 13597,2195 13597,1395 14397,1395 14397,2195 "
       id="polyline550" />
  </g>
  <g
     style="fill:#840000; fill-opacity:1.0;  stroke:#840000; stroke-width:800; stroke-opacity:1;  stroke-linecap:round; stroke-linejoin:round;"
     id="g552"
     inkscape:export-filename="F:\Elettronica\ArduinoISP_Multi_UnoR3\Kicad\g8.png"
     inkscape:export-xdpi="180"
     inkscape:export-ydpi="180" />
  <g
     style="fill:#840000; fill-opacity:0.0;  stroke:#840000; stroke-width:800; stroke-opacity:1;  stroke-linecap:round; stroke-linejoin:round;"
     id="g554"
     inkscape:export-filename="F:\Elettronica\ArduinoISP_Multi_UnoR3\Kicad\g8.png"
     inkscape:export-xdpi="180"
     inkscape:export-ydpi="180">
    <path
       d="M14997 1795 L14997 1795 "
       id="path556" />
  </g>
  <g
     style="fill:#840000; fill-opacity:0.0;  stroke:#840000; stroke-width:0; stroke-opacity:1;  stroke-linecap:round; stroke-linejoin:round;"
     id="g558"
     inkscape:export-filename="F:\Elettronica\ArduinoISP_Multi_UnoR3\Kicad\g8.png"
     inkscape:export-xdpi="180"
     inkscape:export-ydpi="180" />
  <g
     style="fill:#840000; fill-opacity:1.0;  stroke:#840000; stroke-width:0; stroke-opacity:1;  stroke-linecap:round; stroke-linejoin:round;"
     id="g560"
     inkscape:export-filename="F:\Elettronica\ArduinoISP_Multi_UnoR3\Kicad\g8.png"
     inkscape:export-xdpi="180"
     inkscape:export-ydpi="180">
    <polyline
       style="fill-rule:evenodd;"
       points="8241,18870 8241,18358 8753,18358 8753,18870 8241,18870 "
       id="polyline562" />
    <circle
       cx="10465.9"
       cy="18614.2"
       r="255.906"
       id="circle564" />
  </g>
  <g
     style="fill:#840000; fill-opacity:1.0;  stroke:#840000; stroke-width:39.3701; stroke-opacity:1;  stroke-linecap:round; stroke-linejoin:round;"
     id="g566"
     inkscape:export-filename="F:\Elettronica\ArduinoISP_Multi_UnoR3\Kicad\g8.png"
     inkscape:export-xdpi="180"
     inkscape:export-ydpi="180" />
</svg>
